curl
version=1
nRows=210
nColumns=3
inDegrees=yes
endheader
time	r_shoulder_elev	r_elbow_flex
13.1900	20.270189	9.677751
13.2000	20.446161	10.222072
13.2100	20.628109	10.832460
13.2200	20.815292	11.512230
13.2300	21.006960	12.264386
13.2400	21.202367	13.091583
13.2500	21.400770	13.996093
13.2600	21.601438	14.979773
13.2700	21.803657	16.044035
13.2800	22.006738	17.189827
13.2900	22.210015	18.417607
13.3000	22.412860	19.727330
13.3100	22.614678	21.118437
13.3200	22.814917	22.589849
13.3300	23.013071	24.139964
13.3400	23.208680	25.766666
13.3500	23.401338	27.467333
13.3600	23.590692	29.238858
13.3700	23.776443	31.077667
13.3800	23.958351	32.979753
13.3900	24.136233	34.940708
13.4000	24.309964	36.955766
13.4100	24.479474	39.019843
13.4200	24.644750	41.127591
13.4300	24.805835	43.273449
13.4400	24.962820	45.451696
13.4500	25.115850	47.656512
13.4600	25.265113	49.882033
13.4700	25.410842	52.122413
13.4800	25.553312	54.371880
13.4900	25.692831	56.624797
13.5000	25.829744	58.875714
13.5100	25.964421	61.119422
13.5200	26.097260	63.351001
13.5300	26.228680	65.565860
13.5400	26.359115	67.759778
13.5500	26.489012	69.928930
13.5600	26.618825	72.069915
13.5700	26.749008	74.179768
13.5800	26.880013	76.255979
13.5900	27.012284	78.296490
13.6000	27.146245	80.299703
13.6100	27.282303	82.264472
13.6200	27.420836	84.190092
13.6300	27.562189	86.076290
13.6400	27.706670	87.923208
13.6500	27.854543	89.731379
13.6600	28.006022	91.501707
13.6700	28.161272	93.235438
13.6800	28.320400	94.934129
13.6900	28.483456	96.599619
13.7000	28.650431	98.233989
13.7100	28.821254	99.839525
13.7200	28.995794	101.418681
13.7300	29.173859	102.974034
13.7400	29.355205	104.508243
13.7500	29.539528	106.024006
13.7600	29.726481	107.524011
13.7700	29.915671	109.010894
13.7800	30.106670	110.487190
13.7900	30.299019	111.955290
13.8000	30.492241	113.417391
13.8100	30.685846	114.875457
13.8200	30.879343	116.331176
13.8300	31.072246	117.785921
13.8400	31.264088	119.240716
13.8500	31.454425	120.696212
13.8600	31.642852	122.152656
13.8700	31.829005	123.609882
13.8800	32.012571	125.067298
13.8900	32.193295	126.523880
13.9000	32.370988	127.978182
13.9100	32.545526	128.000000
13.9200	32.716860	128.000000
13.9300	32.885012	128.000000
13.9400	33.050078	128.000000
13.9500	33.212226	128.000000
13.9600	33.371695	128.000000
13.9700	33.528786	128.000000
13.9800	33.683860	128.000000
13.9900	33.837330	128.000000
14.0000	33.989650	128.000000
14.0100	34.141309	128.000000
14.0200	34.292819	128.000000
14.0300	34.444705	128.000000
14.0400	34.597491	128.000000
14.0500	34.751692	128.000000
14.0600	34.907799	128.000000
14.0700	35.066269	128.000000
14.0800	35.227517	128.000000
14.0900	35.391901	128.000000
14.1000	35.559718	128.000000
14.1100	35.731193	128.000000
14.1200	35.906477	128.000000
14.1300	36.085640	128.000000
14.1400	36.268672	128.000000
14.1500	36.455477	128.000000
14.1600	36.645883	128.000000
14.1700	36.839637	128.000000
14.1800	37.036419	128.000000
14.1900	37.235838	128.000000
14.2000	37.437452	128.000000
14.2100	37.640767	128.000000
14.2200	37.845256	128.000000
14.2300	38.050363	128.000000
14.2400	38.255519	128.000000
14.2500	38.460153	128.000000
14.2600	38.663699	128.000000
14.2700	38.865612	128.000000
14.2800	39.065377	128.000000
14.2900	39.262511	128.000000
14.3000	39.456582	128.000000
14.3100	39.647205	128.000000
14.3200	39.834053	128.000000
14.3300	40.016859	128.000000
14.3400	40.195419	128.000000
14.3500	40.369590	128.000000
14.3600	40.539295	128.000000
14.3700	40.704514	128.000000
14.3800	40.865287	128.000000
14.3900	41.021709	128.000000
14.4000	41.173924	128.000000
14.4100	41.322118	128.000000
14.4200	41.466517	128.000000
14.4300	41.607379	128.000000
14.4400	41.744984	128.000000
14.4500	41.879634	128.000000
14.4600	42.011637	128.000000
14.4700	42.141308	128.000000
14.4800	42.268956	128.000000
14.4900	42.394881	128.000000
14.5000	42.519363	128.000000
14.5100	42.642661	128.000000
14.5200	42.765000	128.000000
14.5300	42.886572	128.000000
14.5400	43.007526	128.000000
14.5500	43.127964	128.000000
14.5600	43.247939	128.000000
14.5700	43.367445	128.000000
14.5800	43.486419	128.000000
14.5900	43.604735	128.000000
14.6000	43.722199	128.000000
14.6100	43.838550	128.000000
14.6200	43.953453	128.000000
14.6300	44.066501	128.000000
14.6400	44.177211	127.967646
14.6500	44.285027	126.476773
14.6600	44.389314	124.948516
14.6700	44.489364	123.386562
14.6800	44.584396	121.794937
14.6900	44.673559	120.177969
14.7000	44.755938	118.540244
14.7100	44.830554	116.886560
14.7200	44.896377	115.221875
14.7300	44.952330	113.551249
14.7400	44.997298	111.879791
14.7500	45.030140	110.212588
14.7600	45.049701	108.554651
14.7700	45.054821	106.910851
14.7800	45.044354	105.285849
14.7900	45.017180	103.684045
14.8000	44.972218	102.109511
14.8100	44.908447	100.565942
14.8200	44.824918	99.056601
14.8300	44.720772	97.584276
14.8400	44.595255	96.151238
14.8500	44.447730	94.759208
14.8600	44.277695	93.409330
14.8700	44.084791	92.102155
14.8800	43.868815	90.837628
14.8900	43.629725	89.615086
14.9000	43.367647	88.433268
14.9100	43.082878	87.290327
14.9200	42.775883	86.183861
14.9300	42.447295	85.110944
14.9400	42.097911	84.068165
14.9500	41.728678	83.051686
14.9600	41.340687	82.057287
14.9700	40.935158	81.080439
14.9800	40.513428	80.116362
14.9900	40.076932	79.160101
15.0000	39.627184	78.206593
15.0100	39.165763	77.250748
15.0200	38.694291	76.287518
15.0300	38.214416	75.311969
15.0400	37.727791	74.319356
15.0500	37.236062	73.305188
15.0600	36.740847	72.265290
15.0700	36.243723	71.195860
15.0800	35.746213	70.093523
15.0900	35.249774	68.955377
15.1000	34.755786	67.779029
15.1100	34.265545	66.562631
15.1200	33.780252	65.304900
15.1300	33.301015	64.005139
15.1400	32.828835	62.663245
15.1500	32.364613	61.279709
15.1600	31.909141	59.855612
15.1700	31.463109	58.392611
15.1800	31.027101	56.892913
15.1900	30.601602	55.359253
15.2000	30.187000	53.794851
15.2100	29.783595	52.203376
15.2200	29.391598	50.588893
15.2300	29.011147	48.955817
15.2400	28.642306	47.308850
15.2500	28.285080	45.652931
15.2600	27.939420	43.993168
15.2700	27.605231	42.334785
15.2800	27.282380	40.683058
